<?xml version="1.0" encoding="UTF-8"?>
<svg width="377px" height="95px" viewBox="0 0 377 95" version="1.1" xmlns="http://www.w3.org/2000/svg" xmlns:xlink="http://www.w3.org/1999/xlink">
    <!-- Generator: Sketch 50.2 (55047) - http://www.bohemiancoding.com/sketch -->
    <title>title copy</title>
    <desc>Created with Sketch.</desc>
    <defs></defs>
    <g id="Page-1" stroke="none" stroke-width="1" fill="none" fill-rule="evenodd">
        <g id="title-copy">
            <path d="M11.4999985,68 L0.939998474,68 L0.939998474,0.8 L11.4999985,0.8 L11.4999985,68 Z M38.7519985,68.768 C34.2719761,68.768 30.5600132,67.4560131 27.6159985,64.832 C24.4159825,61.631984 22.8159985,57.4400259 22.8159985,52.256 L22.8159985,16.544 C22.8159985,11.3599741 24.4159825,7.168016 27.6159985,3.968 C30.5600132,1.34398688 34.2719761,0.032 38.7519985,0.032 C43.3600215,0.032 47.0719844,1.34398688 49.8879985,3.968 C53.0880145,7.04001536 54.6879985,11.2319734 54.6879985,16.544 L54.6879985,22.496 L44.1279985,22.496 L44.1279985,16.544 C44.1279985,14.1759882 43.680003,12.5760042 42.7839985,11.744 C41.9519943,10.9759962 40.6080078,10.592 38.7519985,10.592 C36.9599895,10.592 35.6480026,10.9759962 34.8159985,11.744 C33.8559937,12.6400045 33.3759985,14.2399885 33.3759985,16.544 L33.3759985,52.256 C33.3759985,54.5600115 33.8559937,56.1599955 34.8159985,57.056 C35.6480026,57.8240038 36.9599895,58.208 38.7519985,58.208 C40.6080078,58.208 41.9519943,57.8240038 42.7839985,57.056 C43.680003,56.2239958 44.1279985,54.6240118 44.1279985,52.256 L44.1279985,43.616 L54.6879985,43.616 L54.6879985,52.256 C54.6879985,57.5680266 53.0880145,61.7599846 49.8879985,64.832 C47.0719844,67.4560131 43.3600215,68.768 38.7519985,68.768 Z M93.4599985,11.36 L76.1799985,11.36 L76.1799985,28.256 L88.0839985,28.256 L88.0839985,38.816 L76.1799985,38.816 L76.1799985,57.44 L93.4599985,57.44 L93.4599985,68 L65.6199985,68 L65.6199985,0.8 L93.4599985,0.8 L93.4599985,11.36 Z M120.423998,68 L104.487998,68 L104.487998,0.8 L118.983998,0.8 C123.528021,0.8 127.207984,2.04798752 130.023998,4.544 C131.688007,6.01600736 132.903995,7.80798944 133.671998,9.92 C134.504003,11.9680102 134.919998,14.3359866 134.919998,17.024 L134.919998,23.264 C134.919998,27.8080227 133.640011,31.2639882 131.079998,33.632 C134.600016,36.1280125 136.359998,40.1599722 136.359998,45.728 L136.359998,51.872 C136.359998,54.6240138 135.944003,56.9599904 135.111998,58.88 C134.343995,60.9920106 133.128007,62.7839926 131.463998,64.256 C128.711985,66.7520125 125.032022,68 120.423998,68 Z M115.047998,39.776 L115.047998,57.44 L120.423998,57.44 C122.344008,57.44 123.687995,57.0880035 124.455998,56.384 C125.352003,55.5519958 125.799998,54.0480109 125.799998,51.872 L125.799998,45.728 C125.799998,43.4239885 125.320003,41.8240045 124.359998,40.928 C123.527994,40.1599962 122.216007,39.776 120.423998,39.776 L115.047998,39.776 Z M115.047998,11.36 L115.047998,29.216 L118.983998,29.216 C120.776007,29.216 122.087994,28.8320038 122.919998,28.064 C123.880003,27.1039952 124.359998,25.5040112 124.359998,23.264 L124.359998,17.024 C124.359998,14.8479891 123.912003,13.3120045 123.015998,12.416 C122.247995,11.7119965 120.904008,11.36 118.983998,11.36 L115.047998,11.36 Z M175.035998,11.36 L157.755998,11.36 L157.755998,28.256 L169.659998,28.256 L169.659998,38.816 L157.755998,38.816 L157.755998,57.44 L175.035998,57.44 L175.035998,68 L147.195998,68 L147.195998,0.8 L175.035998,0.8 L175.035998,11.36 Z M217.647998,68 L206.895998,68 L201.423998,41.024 L196.623998,41.024 L196.623998,68 L186.063998,68 L186.063998,0.8 L201.999998,0.8 C206.544021,0.8 210.255984,2.14398656 213.135998,4.832 C216.336014,7.77601472 217.935998,11.9359731 217.935998,17.312 L217.935998,24.512 C217.935998,29.9520272 216.336014,34.1439853 213.135998,37.088 C212.687996,37.5360022 212.176001,37.9519981 211.599998,38.336 L217.647998,68 Z M207.375998,17.312 C207.375998,15.0719888 206.896003,13.4720048 205.935998,12.512 C205.103994,11.7439962 203.792007,11.36 201.999998,11.36 L196.623998,11.36 L196.623998,30.464 L201.999998,30.464 C203.792007,30.464 205.103994,30.0800038 205.935998,29.312 C206.896003,28.4159955 207.375998,26.8160115 207.375998,24.512 L207.375998,17.312 Z M243.747998,68.768 C239.267976,68.768 235.556013,67.4560131 232.611998,64.832 C229.411982,61.631984 227.811998,57.4400259 227.811998,52.256 L227.811998,16.544 C227.811998,11.3599741 229.411982,7.168016 232.611998,3.968 C235.556013,1.34398688 239.267976,0.032 243.747998,0.032 C248.356022,0.032 252.067984,1.34398688 254.883998,3.968 C258.084014,7.04001536 259.683998,11.2319734 259.683998,16.544 L259.683998,22.496 L249.123998,22.496 L249.123998,16.544 C249.123998,14.1759882 248.676003,12.5760042 247.779998,11.744 C246.947994,10.9759962 245.604008,10.592 243.747998,10.592 C241.95599,10.592 240.644003,10.9759962 239.811998,11.744 C238.851994,12.6400045 238.371998,14.2399885 238.371998,16.544 L238.371998,52.256 C238.371998,54.5600115 238.851994,56.1599955 239.811998,57.056 C240.644003,57.8240038 241.95599,58.208 243.747998,58.208 C245.604008,58.208 246.947994,57.8240038 247.779998,57.056 C248.676003,56.2239958 249.123998,54.6240118 249.123998,52.256 L249.123998,39.68 L243.843998,39.68 L243.843998,29.12 L259.683998,29.12 L259.683998,52.256 C259.683998,57.5680266 258.084014,61.7599846 254.883998,64.832 C252.067984,67.4560131 248.356022,68.768 243.747998,68.768 Z" id="ICEBERG" fill="#C6C8D1"></path>
            <path d="M3.78399847,94 L1.23999847,94 L1.23999847,82.8 L3.78399847,82.8 C4.50933543,82.8 5.09599623,83.0079979 5.54399847,83.424 C6.05600103,83.9040024 6.31199847,84.5759957 6.31199847,85.44 L6.31199847,91.424 C6.31199847,92.2880043 6.05600103,92.9546643 5.54399847,93.424 C5.09599623,93.8080019 4.50933543,94 3.78399847,94 Z M2.59999847,84.16 L2.59999847,92.64 L3.78399847,92.64 C4.17866711,92.64 4.46133095,92.5600008 4.63199847,92.4 C4.84533287,92.207999 4.95199847,91.882669 4.95199847,91.424 L4.95199847,85.44 C4.95199847,85.0026645 4.85866607,84.680001 4.67199847,84.472 C4.48533087,84.263999 4.18933383,84.16 3.78399847,84.16 L2.59999847,84.16 Z M13.0465445,94 L12.6145445,91.68 L10.2785445,91.68 L9.83054447,94 L8.43854447,94 L10.7905445,82.8 L12.1025445,82.8 L14.4385445,94 L13.0465445,94 Z M10.5345445,90.32 L12.3585445,90.32 L11.4465445,85.504 L10.5345445,90.32 Z M21.8610905,94 L20.4370905,94 L18.9170905,89.328 L18.1650905,89.328 L18.1650905,94 L16.8050905,94 L16.8050905,82.8 L19.3330905,82.8 C20.0477607,82.8 20.6397548,83.0079979 21.1090905,83.424 C21.6104263,83.8933357 21.8610905,84.565329 21.8610905,85.44 L21.8610905,86.704 C21.8610905,87.5680043 21.6104263,88.2346643 21.1090905,88.704 C20.8850894,88.9066677 20.6130921,89.0666661 20.2930905,89.184 L21.8610905,94 Z M19.3330905,87.968 C19.7384258,87.968 20.0344229,87.8666677 20.2210905,87.664 C20.4077581,87.4613323 20.5010905,87.1413355 20.5010905,86.704 L20.5010905,85.44 C20.5010905,85.0026645 20.4077581,84.680001 20.2210905,84.472 C20.0344229,84.263999 19.7384258,84.16 19.3330905,84.16 L18.1650905,84.16 L18.1650905,87.968 L19.3330905,87.968 Z M25.7636365,91.392 L25.7636365,94 L24.4036365,94 L24.4036365,82.8 L25.7636365,82.8 L25.7636365,88.192 L28.2756365,82.8 L29.7796365,82.8 L27.2996365,88.112 L29.7796365,94 L28.3076365,94 L26.5156365,89.776 L25.7636365,91.392 Z M38.6087285,94 L36.0647285,94 L36.0647285,82.816 L38.3527285,82.816 C39.0993989,82.816 39.6860597,83.0133314 40.1127285,83.408 C40.624731,83.8560022 40.8807285,84.517329 40.8807285,85.392 L40.8807285,86.464 C40.8807285,86.8586686 40.824729,87.2053318 40.7127285,87.504 C40.6007279,87.8026682 40.4113965,88.0639989 40.1447285,88.288 C40.8060651,88.7253355 41.1367285,89.4186619 41.1367285,90.368 L41.1367285,91.424 C41.1367285,92.298671 40.880731,92.9599978 40.3687285,93.408 C39.9100595,93.8026686 39.3233987,94 38.6087285,94 Z M38.6087285,89.088 L37.4247285,89.088 L37.4247285,92.64 L38.6087285,92.64 C38.9927304,92.64 39.2807275,92.5600008 39.4727285,92.4 C39.6753962,92.1973323 39.7767285,91.8720022 39.7767285,91.424 L39.7767285,90.368 C39.7767285,89.9306645 39.6833961,89.608001 39.4967285,89.4 C39.3100609,89.191999 39.0140638,89.088 38.6087285,89.088 Z M37.4247285,84.176 L37.4247285,87.728 L38.3527285,87.728 C38.7580638,87.728 39.0540609,87.6266677 39.2407285,87.424 C39.4273961,87.2213323 39.5207285,86.9013355 39.5207285,86.464 L39.5207285,85.392 C39.5207285,84.9546645 39.4300627,84.6426676 39.2487285,84.456 C39.0673942,84.2693324 38.7687306,84.176 38.3527285,84.176 L37.4247285,84.176 Z M48.1112745,94 L43.6952745,94 L43.6952745,82.816 L45.0552745,82.816 L45.0552745,92.64 L48.1112745,92.64 L48.1112745,94 Z M52.9738205,94.144 C52.2378168,94.144 51.6458227,93.9360021 51.1978205,93.52 C50.6858179,93.0506643 50.4298205,92.378671 50.4298205,91.504 L50.4298205,82.8 L51.7898205,82.8 L51.7898205,91.504 C51.7898205,91.9413355 51.8858195,92.263999 52.0778205,92.472 C52.2698214,92.680001 52.5684851,92.784 52.9738205,92.784 C53.3791558,92.784 53.6751529,92.680001 53.8618205,92.472 C54.0484881,92.263999 54.1418205,91.9413355 54.1418205,91.504 L54.1418205,82.8 L55.5018205,82.8 L55.5018205,91.504 C55.5018205,92.378671 55.245823,93.0506643 54.7338205,93.52 C54.5204861,93.7226677 54.261822,93.8773328 53.9578205,93.984 C53.653819,94.0906672 53.3258222,94.144 52.9738205,94.144 Z M62.6203665,84.16 L59.5643665,84.16 L59.5643665,87.584 L61.6923665,87.584 L61.6923665,88.944 L59.5643665,88.944 L59.5643665,92.64 L62.6203665,92.64 L62.6203665,94 L58.2043665,94 L58.2043665,82.8 L62.6203665,82.8 L62.6203665,84.16 Z M71.5774585,94.144 C70.8521215,94.144 70.2654607,93.9360021 69.8174585,93.52 C69.3054559,93.0506643 69.0494585,92.378671 69.0494585,91.504 L69.0494585,85.28 C69.0494585,84.4159957 69.3054559,83.7440024 69.8174585,83.264 C70.2654607,82.8479979 70.8521215,82.64 71.5774585,82.64 C72.2921287,82.64 72.8841228,82.8479979 73.3534585,83.264 C73.865461,83.7440024 74.1214585,84.4159957 74.1214585,85.28 L74.1214585,86.304 L72.7614585,86.304 L72.7614585,85.28 C72.7614585,84.8426645 72.6654594,84.520001 72.4734585,84.312 C72.2814575,84.103999 71.9827938,84 71.5774585,84 C71.1721231,84 70.8761261,84.103999 70.6894585,84.312 C70.5027909,84.520001 70.4094585,84.8426645 70.4094585,85.28 L70.4094585,91.504 C70.4094585,91.9413355 70.5027909,92.263999 70.6894585,92.472 C70.8761261,92.680001 71.1721231,92.784 71.5774585,92.784 C71.9827938,92.784 72.2814575,92.680001 72.4734585,92.472 C72.6654594,92.263999 72.7614585,91.9413355 72.7614585,91.504 L72.7614585,90 L74.1214585,90 L74.1214585,91.504 C74.1214585,92.378671 73.865461,93.0506643 73.3534585,93.52 C72.8841228,93.9360021 72.2921287,94.144 71.5774585,94.144 Z M79.1600045,94.144 C78.4453342,94.144 77.8533402,93.9360021 77.3840045,93.52 C76.8826686,93.0506643 76.6320045,92.378671 76.6320045,91.504 L76.6320045,85.296 C76.6320045,84.4319957 76.8826686,83.7600024 77.3840045,83.28 C77.8533402,82.8639979 78.4453342,82.656 79.1600045,82.656 C79.8746747,82.656 80.4666688,82.8639979 80.9360045,83.28 C81.4373403,83.7600024 81.6880045,84.4319957 81.6880045,85.296 L81.6880045,91.504 C81.6880045,92.378671 81.4373403,93.0506643 80.9360045,93.52 C80.4666688,93.9360021 79.8746747,94.144 79.1600045,94.144 Z M79.1600045,84.016 C78.7546691,84.016 78.4586721,84.119999 78.2720045,84.328 C78.0853369,84.536001 77.9920045,84.8586645 77.9920045,85.296 L77.9920045,91.504 C77.9920045,91.9413355 78.0853369,92.263999 78.2720045,92.472 C78.4586721,92.680001 78.7546691,92.784 79.1600045,92.784 C79.5653398,92.784 79.8613369,92.680001 80.0480045,92.472 C80.2346721,92.263999 80.3280045,91.9413355 80.3280045,91.504 L80.3280045,85.296 C80.3280045,84.8586645 80.2346721,84.536001 80.0480045,84.328 C79.8613369,84.119999 79.5653398,84.016 79.1600045,84.016 Z M88.7425505,94 L84.3265505,94 L84.3265505,82.816 L85.6865505,82.816 L85.6865505,92.64 L88.7425505,92.64 L88.7425505,94 Z M93.5250965,94.144 C92.8104262,94.144 92.2184322,93.9360021 91.7490965,93.52 C91.2477606,93.0506643 90.9970965,92.378671 90.9970965,91.504 L90.9970965,85.296 C90.9970965,84.4319957 91.2477606,83.7600024 91.7490965,83.28 C92.2184322,82.8639979 92.8104262,82.656 93.5250965,82.656 C94.2397667,82.656 94.8317608,82.8639979 95.3010965,83.28 C95.8024323,83.7600024 96.0530965,84.4319957 96.0530965,85.296 L96.0530965,91.504 C96.0530965,92.378671 95.8024323,93.0506643 95.3010965,93.52 C94.8317608,93.9360021 94.2397667,94.144 93.5250965,94.144 Z M93.5250965,84.016 C93.1197611,84.016 92.8237641,84.119999 92.6370965,84.328 C92.4504289,84.536001 92.3570965,84.8586645 92.3570965,85.296 L92.3570965,91.504 C92.3570965,91.9413355 92.4504289,92.263999 92.6370965,92.472 C92.8237641,92.680001 93.1197611,92.784 93.5250965,92.784 C93.9304318,92.784 94.2264289,92.680001 94.4130965,92.472 C94.5997641,92.263999 94.6930965,91.9413355 94.6930965,91.504 L94.6930965,85.296 C94.6930965,84.8586645 94.5997641,84.536001 94.4130965,84.328 C94.2264289,84.119999 93.9304318,84.016 93.5250965,84.016 Z M103.747642,94 L102.323642,94 L100.803642,89.328 L100.051642,89.328 L100.051642,94 L98.6916425,94 L98.6916425,82.8 L101.219642,82.8 C101.934313,82.8 102.526307,83.0079979 102.995642,83.424 C103.496978,83.8933357 103.747642,84.565329 103.747642,85.44 L103.747642,86.704 C103.747642,87.5680043 103.496978,88.2346643 102.995642,88.704 C102.771641,88.9066677 102.499644,89.0666661 102.179642,89.184 L103.747642,94 Z M101.219642,87.968 C101.624978,87.968 101.920975,87.8666677 102.107642,87.664 C102.29431,87.4613323 102.387642,87.1413355 102.387642,86.704 L102.387642,85.44 C102.387642,85.0026645 102.29431,84.680001 102.107642,84.472 C101.920975,84.263999 101.624978,84.16 101.219642,84.16 L100.051642,84.16 L100.051642,87.968 L101.219642,87.968 Z M112.544734,94.144 C112.192733,94.144 111.864736,94.0906672 111.560734,93.984 C111.256733,93.8773328 110.998069,93.7226677 110.784734,93.52 C110.272732,93.0506643 110.016734,92.378671 110.016734,91.504 L110.016734,89.984 L111.376734,89.984 L111.376734,91.504 C111.376734,91.9413355 111.470067,92.263999 111.656734,92.472 C111.843402,92.680001 112.139399,92.784 112.544734,92.784 C112.95007,92.784 113.248734,92.680001 113.440734,92.472 C113.632735,92.263999 113.728734,91.9413355 113.728734,91.504 L113.728734,90.768 C113.728734,90.4586651 113.688735,90.208001 113.608734,90.016 C113.528734,89.823999 113.430068,89.6586674 113.312734,89.52 C113.195401,89.3813326 113.051402,89.2586672 112.880734,89.152 C112.710067,89.0453328 112.486069,88.9120008 112.208734,88.752 C111.867399,88.559999 111.587402,88.3893341 111.368734,88.24 C111.150067,88.0906659 110.950069,87.9146677 110.768734,87.712 C110.267399,87.1679973 110.016734,86.4640043 110.016734,85.6 L110.016734,85.296 C110.016734,84.4319957 110.272732,83.7600024 110.784734,83.28 C110.998069,83.0773323 111.256733,82.9226672 111.560734,82.816 C111.864736,82.7093328 112.192733,82.656 112.544734,82.656 C113.280738,82.656 113.872732,82.8639979 114.320734,83.28 C114.832737,83.7600024 115.088734,84.4319957 115.088734,85.296 L115.088734,86.32 L113.728734,86.32 L113.728734,85.296 C113.728734,84.8586645 113.632735,84.536001 113.440734,84.328 C113.248734,84.119999 112.95007,84.016 112.544734,84.016 C112.139399,84.016 111.843402,84.119999 111.656734,84.328 C111.470067,84.536001 111.376734,84.8586645 111.376734,85.296 L111.376734,85.6 C111.376734,86.1013358 111.510066,86.5013318 111.776734,86.8 C111.894068,86.9386674 112.032734,87.0586662 112.192734,87.16 C112.352735,87.2613338 112.576733,87.3973325 112.864734,87.568 C113.184736,87.7386675 113.4594,87.9039992 113.688734,88.064 C113.918069,88.2240008 114.128734,88.4106656 114.320734,88.624 C114.832737,89.1786694 115.088734,89.893329 115.088734,90.768 L115.088734,91.504 C115.088734,92.378671 114.832737,93.0506643 114.320734,93.52 C113.872732,93.9360021 113.280738,94.144 112.544734,94.144 Z M120.07928,94.144 C119.353944,94.144 118.767283,93.9360021 118.31928,93.52 C117.807278,93.0506643 117.55128,92.378671 117.55128,91.504 L117.55128,85.28 C117.55128,84.4159957 117.807278,83.7440024 118.31928,83.264 C118.767283,82.8479979 119.353944,82.64 120.07928,82.64 C120.793951,82.64 121.385945,82.8479979 121.85528,83.264 C122.367283,83.7440024 122.62328,84.4159957 122.62328,85.28 L122.62328,86.304 L121.26328,86.304 L121.26328,85.28 C121.26328,84.8426645 121.167281,84.520001 120.97528,84.312 C120.78328,84.103999 120.484616,84 120.07928,84 C119.673945,84 119.377948,84.103999 119.19128,84.312 C119.004613,84.520001 118.91128,84.8426645 118.91128,85.28 L118.91128,91.504 C118.91128,91.9413355 119.004613,92.263999 119.19128,92.472 C119.377948,92.680001 119.673945,92.784 120.07928,92.784 C120.484616,92.784 120.78328,92.680001 120.97528,92.472 C121.167281,92.263999 121.26328,91.9413355 121.26328,91.504 L121.26328,90 L122.62328,90 L122.62328,91.504 C122.62328,92.378671 122.367283,93.0506643 121.85528,93.52 C121.385945,93.9360021 120.793951,94.144 120.07928,94.144 Z M128.893826,82.8 L130.253826,82.8 L130.253826,94 L128.893826,94 L128.893826,88.944 L126.557826,88.944 L126.557826,94 L125.197826,94 L125.197826,82.8 L126.557826,82.8 L126.557826,87.584 L128.893826,87.584 L128.893826,82.8 Z M137.404372,84.16 L134.348372,84.16 L134.348372,87.584 L136.476372,87.584 L136.476372,88.944 L134.348372,88.944 L134.348372,92.64 L137.404372,92.64 L137.404372,94 L132.988372,94 L132.988372,82.8 L137.404372,82.8 L137.404372,84.16 Z M143.578918,90.208 L146.378918,82.8 L147.146918,82.8 L147.146918,94 L145.786918,94 L145.786918,87.68 L143.946918,92.624 L143.194918,92.624 L141.354918,87.68 L141.354918,94 L139.994918,94 L139.994918,82.8 L140.762918,82.8 L143.578918,90.208 Z M154.297464,84.16 L151.241464,84.16 L151.241464,87.584 L153.369464,87.584 L153.369464,88.944 L151.241464,88.944 L151.241464,92.64 L154.297464,92.64 L154.297464,94 L149.881464,94 L149.881464,82.8 L154.297464,82.8 L154.297464,84.16 Z M165.238556,84.176 L162.182556,84.176 L162.182556,87.568 L164.310556,87.568 L164.310556,88.928 L162.182556,88.928 L162.182556,94 L160.822556,94 L160.822556,82.816 L165.238556,82.816 L165.238556,84.176 Z M170.037102,94.144 C169.322432,94.144 168.730438,93.9360021 168.261102,93.52 C167.759767,93.0506643 167.509102,92.378671 167.509102,91.504 L167.509102,85.296 C167.509102,84.4319957 167.759767,83.7600024 168.261102,83.28 C168.730438,82.8639979 169.322432,82.656 170.037102,82.656 C170.751773,82.656 171.343767,82.8639979 171.813102,83.28 C172.314438,83.7600024 172.565102,84.4319957 172.565102,85.296 L172.565102,91.504 C172.565102,92.378671 172.314438,93.0506643 171.813102,93.52 C171.343767,93.9360021 170.751773,94.144 170.037102,94.144 Z M170.037102,84.016 C169.631767,84.016 169.33577,84.119999 169.149102,84.328 C168.962435,84.536001 168.869102,84.8586645 168.869102,85.296 L168.869102,91.504 C168.869102,91.9413355 168.962435,92.263999 169.149102,92.472 C169.33577,92.680001 169.631767,92.784 170.037102,92.784 C170.442438,92.784 170.738435,92.680001 170.925102,92.472 C171.11177,92.263999 171.205102,91.9413355 171.205102,91.504 L171.205102,85.296 C171.205102,84.8586645 171.11177,84.536001 170.925102,84.328 C170.738435,84.119999 170.442438,84.016 170.037102,84.016 Z M180.259648,94 L178.835648,94 L177.315648,89.328 L176.563648,89.328 L176.563648,94 L175.203648,94 L175.203648,82.8 L177.731648,82.8 C178.446319,82.8 179.038313,83.0079979 179.507648,83.424 C180.008984,83.8933357 180.259648,84.565329 180.259648,85.44 L180.259648,86.704 C180.259648,87.5680043 180.008984,88.2346643 179.507648,88.704 C179.283647,88.9066677 179.01165,89.0666661 178.691648,89.184 L180.259648,94 Z M177.731648,87.968 C178.136984,87.968 178.432981,87.8666677 178.619648,87.664 C178.806316,87.4613323 178.899648,87.1413355 178.899648,86.704 L178.899648,85.44 C178.899648,85.0026645 178.806316,84.680001 178.619648,84.472 C178.432981,84.263999 178.136984,84.16 177.731648,84.16 L176.563648,84.16 L176.563648,87.968 L177.731648,87.968 Z M190.92874,82.8 L192.32074,82.8 L189.98474,94 L188.65674,94 L186.32074,82.8 L187.71274,82.8 L189.32874,91.296 L190.92874,82.8 Z M195.999286,94 L194.639286,94 L194.639286,82.8 L195.999286,82.8 L195.999286,94 Z M202.317832,90.208 L205.117832,82.8 L205.885832,82.8 L205.885832,94 L204.525832,94 L204.525832,87.68 L202.685832,92.624 L201.933832,92.624 L200.093832,87.68 L200.093832,94 L198.733832,94 L198.733832,82.8 L199.501832,82.8 L202.317832,90.208 Z" id="Dark-blue-color-sche" fill="#6B7089"></path>
            <polygon id="Polygon-Copy-3" fill="#E27878" points="369 1 377 9 361 9"></polygon>
            <polygon id="Polygon-Copy-4" fill="#E2A478" points="352 18 360 26 344 26"></polygon>
            <polygon id="Polygon-Copy-6" fill="#B4BE82" points="335 35 343 43 327 43"></polygon>
            <polygon id="Polygon-Copy-5" fill="#89B8C2" points="318 52 326 60 310 60"></polygon>
            <polygon id="Polygon-Copy-8" fill="#84A0C6" points="301 69 309 77 293 77"></polygon>
            <polygon id="Polygon-Copy-7" fill="#A093C7" points="284 86 292 94 276 94"></polygon>
        </g>
    </g>
</svg>